<svg width="759" height="71" viewBox="0 0 759 71" fill="none" xmlns="http://www.w3.org/2000/svg">
<path d="M44.5625 51.3438C44.5625 55.4062 43.5625 58.9062 41.5625 61.8438C39.5938 64.7812 36.75 67.0312 33.0312 68.5938C29.3438 70.1562 24.9375 70.9375 19.8125 70.9375C17.3125 70.9375 14.9219 70.7969 12.6406 70.5156C10.3594 70.2344 8.20312 69.8281 6.17188 69.2969C4.17188 68.7344 2.34375 68.0625 0.6875 67.2812V56.6875C3.46875 57.9062 6.57812 59.0156 10.0156 60.0156C13.4531 60.9844 16.9531 61.4688 20.5156 61.4688C23.4219 61.4688 25.8281 61.0938 27.7344 60.3438C29.6719 59.5625 31.1094 58.4688 32.0469 57.0625C32.9844 55.625 33.4531 53.9531 33.4531 52.0469C33.4531 50.0156 32.9062 48.2969 31.8125 46.8906C30.7188 45.4844 29.0625 44.2031 26.8438 43.0469C24.6562 41.8594 21.9062 40.5938 18.5938 39.25C16.3438 38.3438 14.1875 37.3125 12.125 36.1562C10.0938 35 8.28125 33.6406 6.6875 32.0781C5.09375 30.5156 3.82812 28.6719 2.89062 26.5469C1.98438 24.3906 1.53125 21.8594 1.53125 18.9531C1.53125 15.0781 2.45312 11.7656 4.29688 9.01562C6.17188 6.26562 8.79688 4.15625 12.1719 2.6875C15.5781 1.21875 19.5469 0.484375 24.0781 0.484375C27.6719 0.484375 31.0469 0.859375 34.2031 1.60938C37.3906 2.35938 40.5156 3.42188 43.5781 4.79688L40.0156 13.8438C37.2031 12.6875 34.4688 11.7656 31.8125 11.0781C29.1875 10.3906 26.5 10.0469 23.75 10.0469C21.375 10.0469 19.3594 10.4062 17.7031 11.125C16.0469 11.8438 14.7812 12.8594 13.9062 14.1719C13.0625 15.4531 12.6406 16.9844 12.6406 18.7656C12.6406 20.7656 13.125 22.4531 14.0938 23.8281C15.0938 25.1719 16.625 26.4062 18.6875 27.5312C20.7812 28.6562 23.4688 29.9062 26.75 31.2812C30.5312 32.8438 33.7344 34.4844 36.3594 36.2031C39.0156 37.9219 41.0469 39.9844 42.4531 42.3906C43.8594 44.7656 44.5625 47.75 44.5625 51.3438ZM57.7812 70V1.46875H69.0312V70H57.7812ZM110.891 70H99.5938V11.0312H79.5312V1.46875H130.906V11.0312H110.891V70ZM180.219 70H141.406V1.46875H180.219V10.9375H152.656V29.5469H178.484V38.9688H152.656V60.4844H180.219V70ZM280.812 35.6406C280.812 40.9219 280.141 45.7344 278.797 50.0781C277.484 54.3906 275.5 58.1094 272.844 61.2344C270.188 64.3281 266.859 66.7188 262.859 68.4062C258.859 70.0938 254.172 70.9375 248.797 70.9375C243.328 70.9375 238.578 70.0938 234.547 68.4062C230.547 66.7188 227.219 64.3125 224.562 61.1875C221.938 58.0625 219.969 54.3281 218.656 49.9844C217.344 45.6406 216.688 40.8281 216.688 35.5469C216.688 28.4844 217.844 22.3281 220.156 17.0781C222.5 11.7969 226.047 7.70312 230.797 4.79688C235.578 1.85938 241.609 0.390625 248.891 0.390625C256.016 0.390625 261.938 1.84375 266.656 4.75C271.375 7.65625 274.906 11.75 277.25 17.0312C279.625 22.2812 280.812 28.4844 280.812 35.6406ZM228.5 35.6406C228.5 40.9219 229.219 45.5 230.656 49.375C232.094 53.2188 234.297 56.1875 237.266 58.2812C240.266 60.3438 244.109 61.375 248.797 61.375C253.516 61.375 257.359 60.3438 260.328 58.2812C263.297 56.1875 265.484 53.2188 266.891 49.375C268.297 45.5 269 40.9219 269 35.6406C269 27.6094 267.391 21.3281 264.172 16.7969C260.984 12.2344 255.891 9.95312 248.891 9.95312C244.203 9.95312 240.344 10.9844 237.312 13.0469C234.312 15.1094 232.094 18.0625 230.656 21.9062C229.219 25.7188 228.5 30.2969 228.5 35.6406ZM306.688 70H295.531V1.46875H334.25V10.9375H306.688V32.3125H332.469V41.7344H306.688V70ZM395.422 70H384.125V11.0312H364.062V1.46875H415.438V11.0312H395.422V70ZM479.984 70H468.781V39.0625H437.188V70H425.938V1.46875H437.188V29.5H468.781V1.46875H479.984V70ZM536.938 70H498.125V1.46875H536.938V10.9375H509.375V29.5469H535.203V38.9688H509.375V60.4844H536.938V70ZM632.328 35.0781C632.328 42.7969 630.891 49.25 628.016 54.4375C625.141 59.5938 620.969 63.4844 615.5 66.1094C610.031 68.7031 603.438 70 595.719 70H576.688V1.46875H597.781C604.875 1.46875 611 2.75 616.156 5.3125C621.312 7.84375 625.297 11.6094 628.109 16.6094C630.922 21.5781 632.328 27.7344 632.328 35.0781ZM620.609 35.4062C620.609 29.7812 619.719 25.1562 617.938 21.5312C616.188 17.9062 613.594 15.2188 610.156 13.4688C606.75 11.6875 602.547 10.7969 597.547 10.7969H587.938V60.5781H595.906C604.188 60.5781 610.375 58.4688 614.469 54.25C618.562 50.0312 620.609 43.75 620.609 35.4062ZM689.562 70L682.859 50.9688H656.656L649.953 70H638.094L663.594 1.1875H676.062L701.516 70H689.562ZM679.953 41.3125L673.438 22.5625C673.188 21.75 672.828 20.6094 672.359 19.1406C671.891 17.6406 671.422 16.125 670.953 14.5938C670.484 13.0312 670.094 11.7188 669.781 10.6562C669.469 11.9375 669.078 13.375 668.609 14.9688C668.172 16.5312 667.734 18 667.297 19.375C666.891 20.75 666.578 21.8125 666.359 22.5625L659.797 41.3125H679.953ZM729.969 32.7344L746.234 1.46875H758.375L735.594 43.375V70H724.391V43.7969L701.562 1.46875H713.797L729.969 32.7344Z" fill="#222222"/>
</svg>
